# xmcd CD database file
#
# Track frame offsets:
#	150
#	21875
#	42313
#	57548
#	70575
#	80063
#	93663
#	109528
#	129193
#	150338
#	160938
#	174195
#
# Disc length: 2488 seconds
#
# Revision: 2
# Processed by: cddbd v1.4PL0 Copyright (c) Steve Scherf et al.
# Submitted via: CDex 1.50Beta7
#
DISCID=8e09b60c
DTITLE=Willie Nelson - The Best Of Willie Nelson Disc 2
DYEAR=1900
DGENRE=Country
TTITLE0=Poncho and Lefty
TTITLE1=Angel Flying Too Close To The Ground
TTITLE2=Living In The Promiseland
TTITLE3=Remember Me (When The Candle Lights Are Gleaming)
TTITLE4=If You've Got The Money, I've Got The Time
TTITLE5=Heartbreak Hotel
TTITLE6=Mammas, Don't Let Your Babies Grow Up To Be Cowboys
TTITLE7=Last Thing I Needed, First Thing This Morning
TTITLE8=Uncloudy Day
TTITLE9=Blue Eyes Crying In The Rain
TTITLE10=Good Hearted Woman
TTITLE11=Forgiving You Was Easy
EXTD=
EXTT0=with Merle Haggard\n
EXTT1=
EXTT2=
EXTT3=
EXTT4=
EXTT5=with Leon Russell\n
EXTT6=
EXTT7=
EXTT8=
EXTT9=
EXTT10=
EXTT11=
PLAYORDER=
